<svg aria-hidden="true" style="position: absolute; width: 0; height: 0; overflow: hidden;"
  version="1.1" xmlns="http://www.w3.org/2000/svg" xmlns:xlink="http://www.w3.org/1999/xlink">
  <defs>
    <symbol id="icon-tiktok" viewBox="0 0 32 32">
      <path
        d="M8 4c-2.193 0-4 1.807-4 4v16c0 2.193 1.807 4 4 4h16c2.193 0 4-1.807 4-4v-16c0-2.193-1.807-4-4-4h-16zM16 9.333h2.667c0 1.34 1.961 2.667 2.667 2.667v2.667c-0.807 0-1.776-0.354-2.667-0.953v4.953c0 2.205-1.795 4-4 4s-4-1.795-4-4c0-2.205 1.795-4 4-4v2.667c-0.736 0-1.333 0.599-1.333 1.333s0.597 1.333 1.333 1.333c0.736 0 1.333-0.599 1.333-1.333v-9.333z"></path>
    </symbol>
    <symbol id="icon-inkedin" viewBox="0 0 32 32">
      <path
        d="M25.333 4h-18.667c-1.473 0-2.667 1.193-2.667 2.667v18.667c0 1.473 1.193 2.667 2.667 2.667h18.667c1.473 0 2.667-1.193 2.667-2.667v-18.667c0-1.473-1.193-2.667-2.667-2.667zM12 22.667h-3.364v-9.333h3.364v9.333zM10.259 11.623c-1.028 0-1.715-0.685-1.715-1.6s0.685-1.6 1.828-1.6c1.028 0 1.715 0.685 1.715 1.6s-0.685 1.6-1.828 1.6zM24 22.667h-3.256v-5.101c0-1.411-0.868-1.736-1.193-1.736s-1.411 0.217-1.411 1.736c0 0.217 0 5.101 0 5.101h-3.364v-9.333h3.364v1.303c0.433-0.76 1.301-1.303 2.929-1.303s2.931 1.303 2.931 4.232v5.101z"></path>
    </symbol>
    <symbol id="icon-twitter" viewBox="0 0 32 32">
      <path
        d="M29.333 5.332c-1.040 0.617-3.127 1.459-4.353 1.701-0.036 0.009-0.065 0.021-0.1 0.031-1.084-1.069-2.569-1.732-4.213-1.732-3.313 0-6 2.687-6 6 0 0.175-0.015 0.496 0 0.667-4.471 0-7.873-2.341-10.313-5.333-0.265 0.667-0.381 1.72-0.381 2.709 0 1.868 1.46 3.703 3.733 4.84-0.419 0.108-0.88 0.185-1.36 0.185-0.775 0-1.595-0.204-2.345-0.823 0 0.023 0 0.044 0 0.068 0 2.611 2.771 4.388 5.235 4.883-0.5 0.295-1.508 0.324-2 0.324-0.347 0-1.573-0.159-1.901-0.22 0.685 2.14 3.157 3.343 5.513 3.385-1.843 1.445-3.121 1.981-6.895 1.981h-1.285c2.384 1.528 5.42 2.668 8.463 2.668 9.907 0 15.537-7.551 15.537-14.668 0-0.115-0.003-0.355-0.007-0.596 0-0.024 0.007-0.047 0.007-0.071 0-0.036-0.011-0.071-0.011-0.107-0.004-0.181-0.008-0.351-0.012-0.439 1.053-0.76 1.967-1.708 2.689-2.788-0.967 0.429-2.004 0.717-3.093 0.848 1.112-0.667 2.692-2.256 3.093-3.515z"></path>
    </symbol>
    <symbol id="icon-facebook" viewBox="0 0 32 32">
      <path
        d="M16 2.667c-7.364 0-13.333 5.969-13.333 13.333 0 6.684 4.924 12.204 11.34 13.168v-9.635h-3.299v-3.505h3.299v-2.332c0-3.861 1.881-5.556 5.091-5.556 1.537 0 2.349 0.113 2.735 0.165v3.059h-2.189c-1.363 0-1.839 1.292-1.839 2.748v1.916h3.993l-0.541 3.505h-3.451v9.663c6.508-0.881 11.528-6.447 11.528-13.196 0-7.364-5.969-13.333-13.333-13.333z"></path>
    </symbol>
    <symbol id="icon-youtube" viewBox="0 0 32 32">
      <path
        d="M7.573 2.667l1.971 7.125v3.417h1.708v-3.417l1.997-7.125h-1.721l-0.716 3.242c-0.201 0.947-0.329 1.62-0.388 2.021h-0.052c-0.084-0.561-0.212-1.239-0.388-2.034l-0.69-3.229h-1.721zM15.242 5.357c-0.579 0-1.045 0.113-1.401 0.344-0.356 0.229-0.618 0.596-0.786 1.099-0.167 0.503-0.25 1.168-0.25 1.997v1.12c0 0.82 0.072 1.477 0.219 1.971s0.394 0.859 0.742 1.094c0.348 0.235 0.827 0.352 1.438 0.352 0.595 0 1.067-0.116 1.414-0.346s0.598-0.592 0.753-1.091c0.155-0.499 0.232-1.158 0.232-1.979v-1.12c0-0.828-0.078-1.491-0.237-1.99-0.159-0.497-0.411-0.864-0.755-1.099s-0.798-0.352-1.367-0.352zM18.505 5.508v5.753c0 0.712 0.119 1.236 0.362 1.57s0.62 0.503 1.13 0.503c0.736 0 1.291-0.356 1.659-1.068h0.036l0.151 0.943h1.357v-7.701h-1.732v6.117c-0.067 0.143-0.169 0.26-0.307 0.352-0.139 0.093-0.282 0.138-0.432 0.138-0.176 0-0.302-0.072-0.378-0.219s-0.115-0.393-0.115-0.737v-5.651h-1.732zM15.203 6.549c0.243 0 0.414 0.127 0.51 0.383 0.096 0.255 0.143 0.66 0.143 1.214v2.398c0 0.569-0.047 0.981-0.143 1.232s-0.266 0.376-0.508 0.378c-0.243 0-0.411-0.127-0.503-0.378-0.093-0.251-0.138-0.662-0.138-1.232v-2.398c0-0.552 0.047-0.958 0.143-1.214 0.096-0.255 0.26-0.383 0.495-0.383zM6.667 14.667c-1.467 0-2.667 1.2-2.667 2.667v9.333c0 1.467 1.2 2.667 2.667 2.667h18.667c1.467 0 2.667-1.2 2.667-2.667v-9.333c0-1.467-1.2-2.667-2.667-2.667h-18.667zM16.065 17.333h1.409v3.424h0.010c0.127-0.248 0.308-0.447 0.542-0.599s0.486-0.227 0.755-0.227c0.347 0 0.618 0.092 0.815 0.276s0.342 0.481 0.43 0.891c0.088 0.411 0.13 0.98 0.13 1.708v1.029h0.003c0 0.969-0.118 1.679-0.352 2.135s-0.596 0.685-1.091 0.685c-0.276 0-0.526-0.063-0.753-0.19s-0.397-0.301-0.51-0.521h-0.031l-0.148 0.615h-1.208v-9.227zM7.315 17.661h4.336v1.18h-1.453v7.719h-1.43v-7.719h-1.453v-1.18zM22.797 19.935c0.501 0 0.887 0.092 1.156 0.276 0.268 0.184 0.457 0.471 0.568 0.859 0.109 0.389 0.164 0.927 0.164 1.612v1.115h-2.448v0.331c0 0.417 0.011 0.73 0.036 0.938s0.076 0.361 0.154 0.456c0.077 0.096 0.197 0.143 0.359 0.143 0.219 0 0.369-0.086 0.451-0.255s0.126-0.45 0.133-0.846l1.263 0.073c0.007 0.056 0.010 0.136 0.010 0.234 0 0.601-0.165 1.050-0.495 1.346-0.329 0.297-0.792 0.445-1.393 0.445-0.721 0-1.228-0.228-1.518-0.68s-0.435-1.151-0.435-2.099v-1.135c0-0.976 0.151-1.689 0.451-2.138s0.816-0.674 1.544-0.674zM11.214 20.060h1.466v4.773c0 0.289 0.032 0.497 0.096 0.62 0.064 0.124 0.168 0.185 0.318 0.185 0.127 0 0.251-0.039 0.367-0.117 0.117-0.077 0.2-0.177 0.258-0.297v-5.164h1.466v6.5h-1.148l-0.125-0.797h-0.034c-0.312 0.603-0.778 0.904-1.401 0.904-0.432 0-0.748-0.142-0.953-0.424s-0.31-0.726-0.31-1.326v-4.857zM22.766 20.924c-0.156 0-0.272 0.047-0.346 0.138-0.075 0.092-0.124 0.243-0.148 0.451-0.025 0.208-0.036 0.524-0.036 0.948v0.466h1.070v-0.466c0-0.417-0.014-0.732-0.042-0.948-0.027-0.216-0.079-0.368-0.154-0.456s-0.188-0.133-0.344-0.133zM18.122 20.971c-0.141 0-0.271 0.056-0.391 0.169s-0.206 0.259-0.255 0.435v3.69c0.064 0.113 0.147 0.198 0.25 0.255 0.103 0.056 0.212 0.086 0.333 0.086 0.156 0 0.278-0.056 0.37-0.169s0.159-0.304 0.198-0.573c0.039-0.268 0.057-0.641 0.057-1.115v-0.836c0-0.509-0.015-0.901-0.047-1.177s-0.089-0.475-0.169-0.591c-0.081-0.116-0.197-0.174-0.346-0.174z"></path>
    </symbol>
    <symbol id="icon-instagram" viewBox="0 0 32 32">
      <path
        d="M10.667 4c-3.681 0-6.667 2.985-6.667 6.667v10.667c0 3.681 2.985 6.667 6.667 6.667h10.667c3.681 0 6.667-2.985 6.667-6.667v-10.667c0-3.681-2.985-6.667-6.667-6.667h-10.667zM24 6.667c0.736 0 1.333 0.597 1.333 1.333s-0.597 1.333-1.333 1.333c-0.736 0-1.333-0.597-1.333-1.333s0.597-1.333 1.333-1.333zM16 9.333c3.681 0 6.667 2.985 6.667 6.667s-2.985 6.667-6.667 6.667c-3.681 0-6.667-2.985-6.667-6.667s2.985-6.667 6.667-6.667zM16 12c-2.209 0-4 1.791-4 4v0c0 2.209 1.791 4 4 4v0c2.209 0 4-1.791 4-4v0c0-2.209-1.791-4-4-4v0z"></path>
    </symbol>
  </defs>
</svg>
